<svg data-v-423bf9ae="" xmlns="http://www.w3.org/2000/svg" viewBox="0 0 521 90" class="iconLeft"><!----><!----><!----><g data-v-423bf9ae="" id="46e2afa5-fde7-44ad-b70d-7031d3d2d4ba" fill="white" transform="matrix(5.940593719482422,0,0,5.940593719482422,103.04885864257812,-4.247521877288818)"><path d="M2.65 11.87L2.65 3.82L1.17 3.82L1.17 13.15L6.27 13.15L6.27 11.87ZM8.09 5.26C8.60 5.26 9.01 4.86 9.01 4.36C9.01 3.86 8.60 3.46 8.09 3.46C7.60 3.46 7.19 3.86 7.19 4.36C7.19 4.86 7.60 5.26 8.09 5.26ZM7.42 13.15L8.81 13.15L8.81 6.53L7.42 6.53ZM13.88 6.53L12.47 6.53L12.47 4.64L11.07 4.64L11.07 6.53L10.19 6.53L10.19 7.67L11.07 7.67L11.07 13.15L12.48 13.15L12.47 7.67L13.88 7.67ZM18.10 6.53L16.68 6.53L16.68 4.64L15.28 4.64L15.28 6.53L14.41 6.53L14.41 7.67L15.28 7.67L15.28 13.15L16.70 13.15L16.68 7.67L18.10 7.67ZM19.22 13.15L20.64 13.15L20.64 3.24L19.22 3.24ZM28.74 9.70C28.74 7.73 27.42 6.36 25.49 6.36C23.51 6.36 22.08 7.89 22.08 9.84C22.08 11.80 23.49 13.31 25.67 13.31C26.80 13.31 27.77 12.92 28.36 12.25L27.39 11.46C26.96 11.94 26.40 12.19 25.65 12.19C24.41 12.19 23.67 11.33 23.57 10.15L28.74 10.15ZM25.49 7.50C26.53 7.50 27.20 8.12 27.34 9.17L23.63 9.17C23.83 8.17 24.51 7.50 25.49 7.50ZM38.63 3.82L35.19 8.65L31.76 3.82L30.44 3.82L30.44 13.15L31.91 13.15L31.91 6.31L35.20 10.76L38.49 6.31L38.49 13.15L39.96 13.15L39.96 3.82ZM46.65 13.34C47.77 13.34 48.77 13.02 49.57 12.45L48.78 11.27C48.21 11.74 47.48 12.02 46.65 12.02C44.58 12.02 43.28 10.37 43.28 8.46C43.28 6.55 44.58 4.91 46.65 4.91C47.48 4.91 48.21 5.19 48.78 5.66L49.57 4.48C48.77 3.91 47.77 3.59 46.65 3.59C43.71 3.59 41.74 5.75 41.74 8.46C41.74 11.19 43.71 13.34 46.65 13.34ZM59.40 3.82L55.96 8.65L52.53 3.82L51.20 3.82L51.20 13.15L52.67 13.15L52.67 6.31L55.97 10.76L59.25 6.31L59.25 13.15L60.72 13.15L60.72 3.82ZM67.42 13.34C68.54 13.34 69.53 13.02 70.34 12.45L69.55 11.27C68.98 11.74 68.25 12.02 67.42 12.02C65.35 12.02 64.05 10.37 64.05 8.46C64.05 6.55 65.35 4.91 67.42 4.91C68.25 4.91 68.98 5.19 69.55 5.66L70.34 4.48C69.53 3.91 68.54 3.59 67.42 3.59C64.47 3.59 62.50 5.75 62.50 8.46C62.50 11.19 64.47 13.34 67.42 13.34Z"></path></g><!----><g data-v-423bf9ae="" id="2069698d-d431-49e9-afb6-ec6fe4681673" transform="matrix(1.1006872653961182,0,0,1.1006872653961182,-9.957209587097168,-9.917957305908203)" stroke="none" fill="white"><path d="M86.322 14.069a16.82 16.82 0 0 0-11.975-4.952 16.828 16.828 0 0 0-11.979 4.952L43.207 33.232c-4.142 4.143-9.472 14.481.001 23.954a3.407 3.407 0 0 0 2.394.972c.903 0 1.775-.354 2.394-.972.64-.639.992-1.49.992-2.396 0-.904-.351-1.754-.991-2.394-5.238-5.24-3.435-10.861-.011-14.364L67.16 18.86a10.106 10.106 0 0 1 7.189-2.974c2.717 0 5.268 1.056 7.184 2.973 3.963 3.964 3.963 10.412 0 14.373L67.16 47.605a3.392 3.392 0 0 0 0 4.79c.617.618 1.49.973 2.395.973.902 0 1.775-.354 2.396-.971l14.371-14.375c6.606-6.605 6.606-17.351 0-23.953z"></path><path d="M52.787 42.817a3.393 3.393 0 0 0 0 4.788c5.232 5.232 3.432 10.855.014 14.361L33.625 81.143a10.097 10.097 0 0 1-7.186 2.971c-2.718 0-5.27-1.055-7.188-2.971-3.961-3.96-3.961-10.409 0-14.375l14.375-14.371c.639-.641.991-1.49.991-2.396s-.352-1.756-.991-2.394c-1.277-1.28-3.512-1.28-4.791-.001L14.461 61.979c-3.193 3.192-4.951 7.446-4.951 11.976 0 4.53 1.758 8.783 4.951 11.978 3.193 3.193 7.448 4.951 11.978 4.951 4.529 0 8.783-1.758 11.976-4.951l19.164-19.164c.986-.987 4.271-4.624 5.105-9.978.793-5.093-.926-9.795-5.105-13.975-1.237-1.237-3.558-1.235-4.792.001z"></path></g><!----></svg>