<svg data-v-423bf9ae="" xmlns="http://www.w3.org/2000/svg" viewBox="0 0 556 90" class="iconLeft"><!----><!----><!----><g data-v-423bf9ae="" id="be6cac8b-225c-459a-9dc2-4e78217d49b1" fill="black" transform="matrix(5.240174770355225,0,0,5.240174770355225,104.86396026611328,2.947599411010742)"><path d="M0.98 13.55L0.98 3.75L3.75 3.75L3.75 11.35L8.43 11.35L8.43 13.55L0.98 13.55ZM9.39 13.55L9.39 5.96L12.05 5.96L12.05 13.55L9.39 13.55ZM10.72 5.12L10.72 5.12Q10.00 5.12 9.55 4.72L9.55 4.72L9.55 4.72Q9.10 4.31 9.10 3.71L9.10 3.71L9.10 3.71Q9.10 3.11 9.55 2.70L9.55 2.70L9.55 2.70Q10.00 2.30 10.72 2.30L10.72 2.30L10.72 2.30Q11.45 2.30 11.90 2.68L11.90 2.68L11.90 2.68Q12.35 3.07 12.35 3.67L12.35 3.67L12.35 3.67Q12.35 4.30 11.90 4.71L11.90 4.71L11.90 4.71Q11.45 5.12 10.72 5.12L10.72 5.12ZM18.35 11.38L19.01 13.24L19.01 13.24Q18.68 13.45 18.19 13.57L18.19 13.57L18.19 13.57Q17.71 13.68 17.16 13.68L17.16 13.68L17.16 13.68Q15.68 13.68 14.88 12.95L14.88 12.95L14.88 12.95Q14.08 12.22 14.08 10.78L14.08 10.78L14.08 8.23L12.98 8.23L12.98 6.24L14.08 6.24L14.08 4.27L16.74 4.27L16.74 6.24L18.48 6.24L18.48 8.23L16.74 8.23L16.74 10.75L16.74 10.75Q16.74 11.16 16.96 11.39L16.96 11.39L16.96 11.39Q17.18 11.62 17.54 11.62L17.54 11.62L17.54 11.62Q18.00 11.62 18.35 11.38L18.35 11.38ZM24.61 11.38L25.27 13.24L25.27 13.24Q24.93 13.45 24.45 13.57L24.45 13.57L24.45 13.57Q23.97 13.68 23.42 13.68L23.42 13.68L23.42 13.68Q21.94 13.68 21.14 12.95L21.14 12.95L21.14 12.95Q20.34 12.22 20.34 10.78L20.34 10.78L20.34 8.23L19.24 8.23L19.24 6.24L20.34 6.24L20.34 4.27L23.00 4.27L23.00 6.24L24.74 6.24L24.74 8.23L23.00 8.23L23.00 10.75L23.00 10.75Q23.00 11.16 23.22 11.39L23.22 11.39L23.22 11.39Q23.44 11.62 23.80 11.62L23.80 11.62L23.80 11.62Q24.26 11.62 24.61 11.38L24.61 11.38ZM26.29 13.55L26.29 3.16L28.95 3.16L28.95 13.55L26.29 13.55ZM38.43 9.77L38.43 9.77Q38.43 9.80 38.39 10.43L38.39 10.43L32.87 10.43L32.87 10.43Q33.04 11.02 33.52 11.33L33.52 11.33L33.52 11.33Q34.01 11.65 34.73 11.65L34.73 11.65L34.73 11.65Q35.28 11.65 35.68 11.49L35.68 11.49L35.68 11.49Q36.08 11.34 36.48 10.99L36.48 10.99L37.88 12.45L37.88 12.45Q36.78 13.68 34.65 13.68L34.65 13.68L34.65 13.68Q33.32 13.68 32.31 13.17L32.31 13.17L32.31 13.17Q31.30 12.67 30.75 11.77L30.75 11.77L30.75 11.77Q30.20 10.88 30.20 9.74L30.20 9.74L30.20 9.74Q30.20 8.62 30.74 7.73L30.74 7.73L30.74 7.73Q31.28 6.85 32.23 6.34L32.23 6.34L32.23 6.34Q33.18 5.84 34.37 5.84L34.37 5.84L34.37 5.84Q35.50 5.84 36.43 6.31L36.43 6.31L36.43 6.31Q37.35 6.78 37.89 7.66L37.89 7.66L37.89 7.66Q38.43 8.55 38.43 9.77L38.43 9.77ZM34.38 7.73L34.38 7.73Q33.77 7.73 33.36 8.08L33.36 8.08L33.36 8.08Q32.94 8.43 32.83 9.03L32.83 9.03L35.94 9.03L35.94 9.03Q35.83 8.43 35.41 8.08L35.41 8.08L35.41 8.08Q35 7.73 34.38 7.73L34.38 7.73ZM51.18 13.55L48.64 13.55L48.61 8.36L46.09 12.59L44.86 12.59L42.35 8.50L42.35 13.55L39.79 13.55L39.79 3.75L42.07 3.75L45.51 9.41L48.87 3.75L51.16 3.75L51.18 13.55ZM58.03 13.75L58.03 13.75Q56.49 13.75 55.27 13.10L55.27 13.10L55.27 13.10Q54.04 12.45 53.34 11.28L53.34 11.28L53.34 11.28Q52.64 10.12 52.64 8.65L52.64 8.65L52.64 8.65Q52.64 7.18 53.34 6.02L53.34 6.02L53.34 6.02Q54.04 4.86 55.27 4.21L55.27 4.21L55.27 4.21Q56.49 3.56 58.03 3.56L58.03 3.56L58.03 3.56Q59.37 3.56 60.45 4.03L60.45 4.03L60.45 4.03Q61.53 4.51 62.24 5.40L62.24 5.40L60.48 7.00L60.48 7.00Q59.53 5.85 58.17 5.85L58.17 5.85L58.17 5.85Q57.37 5.85 56.75 6.20L56.75 6.20L56.75 6.20Q56.13 6.55 55.78 7.19L55.78 7.19L55.78 7.19Q55.44 7.83 55.44 8.65L55.44 8.65L55.44 8.65Q55.44 9.48 55.78 10.11L55.78 10.11L55.78 10.11Q56.13 10.75 56.75 11.10L56.75 11.10L56.75 11.10Q57.37 11.45 58.17 11.45L58.17 11.45L58.17 11.45Q59.53 11.45 60.48 10.30L60.48 10.30L62.24 11.90L62.24 11.90Q61.53 12.80 60.45 13.27L60.45 13.27L60.45 13.27Q59.37 13.75 58.03 13.75L58.03 13.75ZM74.87 13.55L72.32 13.55L72.30 8.36L69.78 12.59L68.54 12.59L66.04 8.50L66.04 13.55L63.48 13.55L63.48 3.75L65.76 3.75L69.20 9.41L72.56 3.75L74.84 3.75L74.87 13.55ZM81.72 13.75L81.72 13.75Q80.18 13.75 78.95 13.10L78.95 13.10L78.95 13.10Q77.73 12.45 77.03 11.28L77.03 11.28L77.03 11.28Q76.33 10.12 76.33 8.65L76.33 8.65L76.33 8.65Q76.33 7.18 77.03 6.02L77.03 6.02L77.03 6.02Q77.73 4.86 78.95 4.21L78.95 4.21L78.95 4.21Q80.18 3.56 81.72 3.56L81.72 3.56L81.72 3.56Q83.06 3.56 84.14 4.03L84.14 4.03L84.14 4.03Q85.22 4.51 85.93 5.40L85.93 5.40L84.17 7.00L84.17 7.00Q83.22 5.85 81.86 5.85L81.86 5.85L81.86 5.85Q81.06 5.85 80.44 6.20L80.44 6.20L80.44 6.20Q79.81 6.55 79.47 7.19L79.47 7.19L79.47 7.19Q79.13 7.83 79.13 8.65L79.13 8.65L79.13 8.65Q79.13 9.48 79.47 10.11L79.47 10.11L79.47 10.11Q79.81 10.75 80.44 11.10L80.44 11.10L80.44 11.10Q81.06 11.45 81.86 11.45L81.86 11.45L81.86 11.45Q83.22 11.45 84.17 10.30L84.17 10.30L85.93 11.90L85.93 11.90Q85.22 12.80 84.14 13.27L84.14 13.27L84.14 13.27Q83.06 13.75 81.72 13.75L81.72 13.75Z"></path></g><!----><g data-v-423bf9ae="" id="d19a9c2a-6cd8-4e99-aa01-c2feff7a9d4c" transform="matrix(1.1006872653961182,0,0,1.1006872653961182,-9.957209587097168,-9.917957305908203)" stroke="none" fill="black"><path d="M86.322 14.069a16.82 16.82 0 0 0-11.975-4.952 16.828 16.828 0 0 0-11.979 4.952L43.207 33.232c-4.142 4.143-9.472 14.481.001 23.954a3.407 3.407 0 0 0 2.394.972c.903 0 1.775-.354 2.394-.972.64-.639.992-1.49.992-2.396 0-.904-.351-1.754-.991-2.394-5.238-5.24-3.435-10.861-.011-14.364L67.16 18.86a10.106 10.106 0 0 1 7.189-2.974c2.717 0 5.268 1.056 7.184 2.973 3.963 3.964 3.963 10.412 0 14.373L67.16 47.605a3.392 3.392 0 0 0 0 4.79c.617.618 1.49.973 2.395.973.902 0 1.775-.354 2.396-.971l14.371-14.375c6.606-6.605 6.606-17.351 0-23.953z"></path><path d="M52.787 42.817a3.393 3.393 0 0 0 0 4.788c5.232 5.232 3.432 10.855.014 14.361L33.625 81.143a10.097 10.097 0 0 1-7.186 2.971c-2.718 0-5.27-1.055-7.188-2.971-3.961-3.96-3.961-10.409 0-14.375l14.375-14.371c.639-.641.991-1.49.991-2.396s-.352-1.756-.991-2.394c-1.277-1.28-3.512-1.28-4.791-.001L14.461 61.979c-3.193 3.192-4.951 7.446-4.951 11.976 0 4.53 1.758 8.783 4.951 11.978 3.193 3.193 7.448 4.951 11.978 4.951 4.529 0 8.783-1.758 11.976-4.951l19.164-19.164c.986-.987 4.271-4.624 5.105-9.978.793-5.093-.926-9.795-5.105-13.975-1.237-1.237-3.558-1.235-4.792.001z"></path></g><!----></svg>