<svg data-v-423bf9ae="" xmlns="http://www.w3.org/2000/svg" viewBox="0 0 549 90" class="iconLeft"><!----><!----><!----><g data-v-423bf9ae="" id="d2959d9f-fd8a-433b-acbf-1ed6f66a374d" fill="white" transform="matrix(5.649717807769775,0,0,5.649717807769775,147.80172729492188,-4.717517852783203)"><path d="M0.81 14L0.81 14Q0.55 14 0.55 13.73L0.55 13.73L0.55 4.47L0.55 4.47Q0.55 4.20 0.81 4.20L0.81 4.20L2.91 4.20L2.91 4.20Q3.18 4.20 3.18 4.47L3.18 4.47L3.18 11.63L3.18 11.63Q3.18 11.75 3.29 11.75L3.29 11.75L7.52 11.75L7.52 11.75Q7.78 11.75 7.78 12.01L7.78 12.01L7.78 13.73L7.78 13.73Q7.78 14 7.52 14L7.52 14L0.81 14ZM9.93 6.43L9.93 6.43Q9.25 6.43 8.83 6.02L8.83 6.02L8.83 6.02Q8.41 5.61 8.41 4.96L8.41 4.96L8.41 4.96Q8.41 4.30 8.83 3.89L8.83 3.89L8.83 3.89Q9.25 3.49 9.93 3.49L9.93 3.49L9.93 3.49Q10.61 3.49 11.02 3.89L11.02 3.89L11.02 3.89Q11.44 4.30 11.44 4.96L11.44 4.96L11.44 4.96Q11.44 5.61 11.02 6.02L11.02 6.02L11.02 6.02Q10.61 6.43 9.93 6.43L9.93 6.43ZM8.88 14L8.88 14Q8.61 14 8.61 13.73L8.61 13.73L8.61 6.99L8.61 6.99Q8.61 6.72 8.88 6.72L8.88 6.72L10.98 6.72L10.98 6.72Q11.24 6.72 11.24 6.99L11.24 6.99L11.24 13.73L11.24 13.73Q11.24 14 10.98 14L10.98 14L8.88 14ZM17.04 8.55L17.04 8.55Q17.04 8.82 16.77 8.82L16.77 8.82L15.71 8.82L15.71 8.82Q15.60 8.82 15.60 8.93L15.60 8.93L15.60 11.00L15.60 11.00Q15.60 11.70 16.10 11.70L16.10 11.70L16.56 11.70L16.56 11.70Q16.83 11.70 16.83 11.97L16.83 11.97L16.83 13.66L16.83 13.66Q16.83 13.90 16.58 13.93L16.58 13.93L16.58 13.93Q16.03 13.97 15.57 13.97L15.57 13.97L15.57 13.97Q14.29 13.97 13.69 13.58L13.69 13.58L13.69 13.58Q13.09 13.19 13.08 12.10L13.08 12.10L13.08 8.93L13.08 8.93Q13.08 8.82 12.96 8.82L12.96 8.82L12.31 8.82L12.31 8.82Q12.04 8.82 12.04 8.55L12.04 8.55L12.04 6.99L12.04 6.99Q12.04 6.72 12.31 6.72L12.31 6.72L12.96 6.72L12.96 6.72Q13.08 6.72 13.08 6.61L13.08 6.61L13.08 5.03L13.08 5.03Q13.08 4.76 13.34 4.76L13.34 4.76L15.33 4.76L15.33 4.76Q15.60 4.76 15.60 5.03L15.60 5.03L15.60 6.61L15.60 6.61Q15.60 6.72 15.71 6.72L15.71 6.72L16.77 6.72L16.77 6.72Q17.04 6.72 17.04 6.99L17.04 6.99L17.04 8.55ZM22.51 8.55L22.51 8.55Q22.51 8.82 22.25 8.82L22.25 8.82L21.18 8.82L21.18 8.82Q21.07 8.82 21.07 8.93L21.07 8.93L21.07 11.00L21.07 11.00Q21.07 11.70 21.57 11.70L21.57 11.70L22.04 11.70L22.04 11.70Q22.30 11.70 22.30 11.97L22.30 11.97L22.30 13.66L22.30 13.66Q22.30 13.90 22.05 13.93L22.05 13.93L22.05 13.93Q21.50 13.97 21.04 13.97L21.04 13.97L21.04 13.97Q19.77 13.97 19.17 13.58L19.17 13.58L19.17 13.58Q18.56 13.19 18.55 12.10L18.55 12.10L18.55 8.93L18.55 8.93Q18.55 8.82 18.44 8.82L18.44 8.82L17.78 8.82L17.78 8.82Q17.51 8.82 17.51 8.55L17.51 8.55L17.51 6.99L17.51 6.99Q17.51 6.72 17.78 6.72L17.78 6.72L18.44 6.72L18.44 6.72Q18.55 6.72 18.55 6.61L18.55 6.61L18.55 5.03L18.55 5.03Q18.55 4.76 18.82 4.76L18.82 4.76L20.80 4.76L20.80 4.76Q21.07 4.76 21.07 5.03L21.07 5.03L21.07 6.61L21.07 6.61Q21.07 6.72 21.18 6.72L21.18 6.72L22.25 6.72L22.25 6.72Q22.51 6.72 22.51 6.99L22.51 6.99L22.51 8.55ZM23.53 14L23.53 14Q23.27 14 23.27 13.73L23.27 13.73L23.27 4.47L23.27 4.47Q23.27 4.20 23.53 4.20L23.53 4.20L25.63 4.20L25.63 4.20Q25.90 4.20 25.90 4.47L25.90 4.47L25.90 13.73L25.90 13.73Q25.90 14 25.63 14L25.63 14L23.53 14ZM30.70 11.89L30.70 11.89Q31.12 11.89 31.49 11.78L31.49 11.78L31.49 11.78Q31.85 11.68 32.09 11.49L32.09 11.49L32.09 11.49Q32.20 11.41 32.27 11.41L32.27 11.41L32.27 11.41Q32.37 11.41 32.45 11.52L32.45 11.52L33.40 12.84L33.40 12.84Q33.47 12.95 33.47 13.01L33.47 13.01L33.47 13.01Q33.47 13.10 33.38 13.20L33.38 13.20L33.38 13.20Q32.87 13.66 32.15 13.89L32.15 13.89L32.15 13.89Q31.43 14.11 30.60 14.11L30.60 14.11L30.60 14.11Q29.55 14.11 28.75 13.74L28.75 13.74L28.75 13.74Q27.94 13.37 27.44 12.68L27.44 12.68L27.44 12.68Q26.74 11.70 26.74 10.30L26.74 10.30L26.74 10.30Q26.74 9.70 26.89 9.13L26.89 9.13L26.89 9.13Q27.22 7.99 28.16 7.30L28.16 7.30L28.16 7.30Q29.11 6.61 30.35 6.61L30.35 6.61L30.35 6.61Q31.79 6.61 32.69 7.54L32.69 7.54L32.69 7.54Q33.59 8.47 33.87 10.08L33.87 10.08L33.87 10.08Q33.94 10.42 33.95 10.75L33.95 10.75L33.95 10.75Q33.95 11.02 33.68 11.02L33.68 11.02L29.53 11.02L29.53 11.02Q29.41 11.02 29.43 11.14L29.43 11.14L29.50 11.33L29.50 11.33Q29.76 11.89 30.70 11.89L30.70 11.89ZM30.30 8.86L30.30 8.86Q29.72 8.86 29.50 9.42L29.50 9.42L29.46 9.53L29.44 9.58L29.44 9.58Q29.44 9.66 29.55 9.66L29.55 9.66L31.07 9.66L31.07 9.66Q31.18 9.66 31.18 9.58L31.18 9.58L31.18 9.58Q31.18 9.53 31.16 9.49L31.16 9.49L31.16 9.49Q31.14 9.45 31.12 9.42L31.12 9.42L31.12 9.42Q30.88 8.86 30.30 8.86L30.30 8.86ZM35 14L35 14Q34.73 14 34.73 13.73L34.73 13.73L34.73 4.47L34.73 4.47Q34.73 4.20 35 4.20L35 4.20L37.09 4.20L37.09 4.20Q37.31 4.20 37.41 4.38L37.41 4.38L39.10 7.14L39.10 7.14Q39.13 7.20 39.19 7.20L39.19 7.20L39.19 7.20Q39.24 7.20 39.27 7.14L39.27 7.14L40.96 4.38L40.96 4.38Q41.06 4.20 41.29 4.20L41.29 4.20L43.37 4.20L43.37 4.20Q43.64 4.20 43.64 4.47L43.64 4.47L43.64 13.73L43.64 13.73Q43.64 14 43.37 14L43.37 14L41.27 14L41.27 14Q41.01 14 41.01 13.73L41.01 13.73L41.01 8.79L41.01 8.79Q41.01 8.71 40.96 8.69L40.96 8.69L40.96 8.69Q40.91 8.68 40.87 8.75L40.87 8.75L40.00 10.19L40.00 10.19Q39.90 10.37 39.68 10.37L39.68 10.37L38.70 10.37L38.70 10.37Q38.47 10.37 38.37 10.19L38.37 10.19L37.51 8.75L37.51 8.75Q37.46 8.69 37.42 8.69L37.42 8.69L37.42 8.69Q37.37 8.69 37.37 8.79L37.37 8.79L37.37 13.73L37.37 13.73Q37.37 14 37.10 14L37.10 14L35 14ZM48.47 14.11L48.47 14.11Q47.32 14.11 46.45 13.66L46.45 13.66L46.45 13.66Q45.57 13.22 45.09 12.40L45.09 12.40L45.09 12.40Q44.60 11.58 44.60 10.50L44.60 10.50L44.60 7.67L44.60 7.67Q44.60 6.61 45.09 5.80L45.09 5.80L45.09 5.80Q45.57 4.98 46.45 4.54L46.45 4.54L46.45 4.54Q47.32 4.09 48.47 4.09L48.47 4.09L48.47 4.09Q49.62 4.09 50.49 4.51L50.49 4.51L50.49 4.51Q51.37 4.93 51.85 5.69L51.85 5.69L51.85 5.69Q52.33 6.45 52.33 7.46L52.33 7.46L52.33 7.46Q52.33 7.59 52.08 7.62L52.08 7.62L49.98 7.76L49.91 7.76L49.91 7.76Q49.70 7.76 49.70 7.69L49.70 7.69L49.70 7.60L49.70 7.60Q49.70 7.03 49.36 6.68L49.36 6.68L49.36 6.68Q49.03 6.34 48.47 6.34L48.47 6.34L48.47 6.34Q47.91 6.34 47.57 6.68L47.57 6.68L47.57 6.68Q47.24 7.03 47.24 7.60L47.24 7.60L47.24 10.61L47.24 10.61Q47.24 11.17 47.57 11.52L47.57 11.52L47.57 11.52Q47.91 11.86 48.47 11.86L48.47 11.86L48.47 11.86Q49.03 11.86 49.36 11.52L49.36 11.52L49.36 11.52Q49.70 11.17 49.70 10.61L49.70 10.61L49.70 10.61Q49.70 10.54 49.78 10.49L49.78 10.49L49.78 10.49Q49.85 10.44 49.98 10.46L49.98 10.46L52.08 10.57L52.08 10.57Q52.33 10.58 52.33 10.64L52.33 10.64L52.33 10.71L52.33 10.71Q52.33 11.72 51.85 12.49L51.85 12.49L51.85 12.49Q51.37 13.26 50.49 13.69L50.49 13.69L50.49 13.69Q49.62 14.11 48.47 14.11L48.47 14.11ZM53.52 14L53.52 14Q53.26 14 53.26 13.73L53.26 13.73L53.26 4.47L53.26 4.47Q53.26 4.20 53.52 4.20L53.52 4.20L55.61 4.20L55.61 4.20Q55.83 4.20 55.93 4.38L55.93 4.38L57.62 7.14L57.62 7.14Q57.65 7.20 57.71 7.20L57.71 7.20L57.71 7.20Q57.76 7.20 57.79 7.14L57.79 7.14L59.49 4.38L59.49 4.38Q59.58 4.20 59.81 4.20L59.81 4.20L61.89 4.20L61.89 4.20Q62.16 4.20 62.16 4.47L62.16 4.47L62.16 13.73L62.16 13.73Q62.16 14 61.89 14L61.89 14L59.79 14L59.79 14Q59.53 14 59.53 13.73L59.53 13.73L59.53 8.79L59.53 8.79Q59.53 8.71 59.48 8.69L59.48 8.69L59.48 8.69Q59.43 8.68 59.39 8.75L59.39 8.75L58.52 10.19L58.52 10.19Q58.42 10.37 58.20 10.37L58.20 10.37L57.22 10.37L57.22 10.37Q56.99 10.37 56.90 10.19L56.90 10.19L56.03 8.75L56.03 8.75Q55.99 8.69 55.94 8.69L55.94 8.69L55.94 8.69Q55.89 8.69 55.89 8.79L55.89 8.79L55.89 13.73L55.89 13.73Q55.89 14 55.62 14L55.62 14L53.52 14ZM66.99 14.11L66.99 14.11Q65.84 14.11 64.97 13.66L64.97 13.66L64.97 13.66Q64.09 13.22 63.61 12.40L63.61 12.40L63.61 12.40Q63.13 11.58 63.13 10.50L63.13 10.50L63.13 7.67L63.13 7.67Q63.13 6.61 63.61 5.80L63.61 5.80L63.61 5.80Q64.09 4.98 64.97 4.54L64.97 4.54L64.97 4.54Q65.84 4.09 66.99 4.09L66.99 4.09L66.99 4.09Q68.14 4.09 69.01 4.51L69.01 4.51L69.01 4.51Q69.89 4.93 70.37 5.69L70.37 5.69L70.37 5.69Q70.85 6.45 70.85 7.46L70.85 7.46L70.85 7.46Q70.85 7.59 70.60 7.62L70.60 7.62L68.50 7.76L68.43 7.76L68.43 7.76Q68.22 7.76 68.22 7.69L68.22 7.69L68.22 7.60L68.22 7.60Q68.22 7.03 67.89 6.68L67.89 6.68L67.89 6.68Q67.55 6.34 66.99 6.34L66.99 6.34L66.99 6.34Q66.43 6.34 66.09 6.68L66.09 6.68L66.09 6.68Q65.76 7.03 65.76 7.60L65.76 7.60L65.76 10.61L65.76 10.61Q65.76 11.17 66.09 11.52L66.09 11.52L66.09 11.52Q66.43 11.86 66.99 11.86L66.99 11.86L66.99 11.86Q67.55 11.86 67.89 11.52L67.89 11.52L67.89 11.52Q68.22 11.17 68.22 10.61L68.22 10.61L68.22 10.61Q68.22 10.54 68.30 10.49L68.30 10.49L68.30 10.49Q68.38 10.44 68.50 10.46L68.50 10.46L70.60 10.57L70.60 10.57Q70.85 10.58 70.85 10.64L70.85 10.64L70.85 10.71L70.85 10.71Q70.85 11.72 70.37 12.49L70.37 12.49L70.37 12.49Q69.89 13.26 69.01 13.69L69.01 13.69L69.01 13.69Q68.14 14.11 66.99 14.11L66.99 14.11Z"></path></g><!----><g data-v-423bf9ae="" id="2c074d84-1388-484d-9c60-581c70f7cf08" transform="matrix(1.3636363744735718,0,0,1.3636363744735718,-2.181818723678589,-23.18181800842285)" stroke="none" fill="white"><path d="M95 17H35a3 3 0 0 0-3 3v60a3 3 0 0 0 3 3h60a3 3 0 0 0 3-3V20a3 3 0 0 0-3-3zm-3 60H38V23h54zM12.5 62A10.5 10.5 0 1 0 23 72.5 10.511 10.511 0 0 0 12.5 62zm0 15a4.5 4.5 0 1 1 4.5-4.5 4.505 4.505 0 0 1-4.5 4.5z"></path></g><!----></svg>