<svg data-v-fde0c5aa="" xmlns="http://www.w3.org/2000/svg" viewBox="0 0 300 300" class="icon"><!----><defs data-v-fde0c5aa=""><!----></defs><rect data-v-fde0c5aa="" fill="#156EAC" x="0" y="0" width="300px" height="300px" class="logo-background-square"></rect><!----><defs data-v-fde0c5aa=""><!----></defs><g data-v-fde0c5aa="" id="217fab23-ca7a-4859-90fe-c58691de42a9" fill="#F6575E" stroke="none" transform="matrix(2.2916667461395264,0,0,2.2916667461395264,35.416666666666664,35.41666666666667)"><path d="M95 17H35a3 3 0 0 0-3 3v60a3 3 0 0 0 3 3h60a3 3 0 0 0 3-3V20a3 3 0 0 0-3-3zm-3 60H38V23h54zM12.5 62A10.5 10.5 0 1 0 23 72.5 10.511 10.511 0 0 0 12.5 62zm0 15a4.5 4.5 0 1 1 4.5-4.5 4.505 4.505 0 0 1-4.5 4.5z"></path></g><!----></svg>