<svg data-v-fde0c5aa="" xmlns="http://www.w3.org/2000/svg" viewBox="0 0 300 300" class="icon"><!----><defs data-v-fde0c5aa=""><!----></defs><rect data-v-fde0c5aa="" fill="#132554" x="0" y="0" width="300px" height="300px" class="logo-background-square"></rect><!----><defs data-v-fde0c5aa=""><!----></defs><g data-v-fde0c5aa="" id="3bea6147-c79a-49dd-958a-84e2c4625fbc" fill="#00A3DD" stroke="none" transform="matrix(2.690568685531616,0,0,2.690568685531616,14.413490819628727,15.470341996927047)"><path d="M86.322 14.069a16.82 16.82 0 0 0-11.975-4.952 16.828 16.828 0 0 0-11.979 4.952L43.207 33.232c-4.142 4.143-9.472 14.481.001 23.954a3.407 3.407 0 0 0 2.394.972c.903 0 1.775-.354 2.394-.972.64-.639.992-1.49.992-2.396 0-.904-.351-1.754-.991-2.394-5.238-5.24-3.435-10.861-.011-14.364L67.16 18.86a10.106 10.106 0 0 1 7.189-2.974c2.717 0 5.268 1.056 7.184 2.973 3.963 3.964 3.963 10.412 0 14.373L67.16 47.605a3.392 3.392 0 0 0 0 4.79c.617.618 1.49.973 2.395.973.902 0 1.775-.354 2.396-.971l14.371-14.375c6.606-6.605 6.606-17.351 0-23.953z"></path><path d="M52.787 42.817a3.393 3.393 0 0 0 0 4.788c5.232 5.232 3.432 10.855.014 14.361L33.625 81.143a10.097 10.097 0 0 1-7.186 2.971c-2.718 0-5.27-1.055-7.188-2.971-3.961-3.96-3.961-10.409 0-14.375l14.375-14.371c.639-.641.991-1.49.991-2.396s-.352-1.756-.991-2.394c-1.277-1.28-3.512-1.28-4.791-.001L14.461 61.979c-3.193 3.192-4.951 7.446-4.951 11.976 0 4.53 1.758 8.783 4.951 11.978 3.193 3.193 7.448 4.951 11.978 4.951 4.529 0 8.783-1.758 11.976-4.951l19.164-19.164c.986-.987 4.271-4.624 5.105-9.978.793-5.093-.926-9.795-5.105-13.975-1.237-1.237-3.558-1.235-4.792.001z"></path></g><!----></svg>