<svg data-v-423bf9ae="" xmlns="http://www.w3.org/2000/svg" viewBox="0 0 87.27272727272727 60" class="icon"><!----><!----><!----><!----><g data-v-423bf9ae="" id="2b431a69-7b5a-4cd3-8595-f6026db41f9b" transform="matrix(0.9090909361839294,0,0,0.9090909361839294,-1.8181828260421753,-15.454546928405762)" stroke="none" fill="white"><path d="M95 17H35a3 3 0 0 0-3 3v60a3 3 0 0 0 3 3h60a3 3 0 0 0 3-3V20a3 3 0 0 0-3-3zm-3 60H38V23h54zM12.5 62A10.5 10.5 0 1 0 23 72.5 10.511 10.511 0 0 0 12.5 62zm0 15a4.5 4.5 0 1 1 4.5-4.5 4.505 4.505 0 0 1-4.5 4.5z"></path></g><!----></svg>